G04 #@! TF.GenerationSoftware,KiCad,Pcbnew,9.0.7*
G04 #@! TF.CreationDate,2026-01-10T01:28:47+01:00*
G04 #@! TF.ProjectId,chocofi,63686f63-6f66-4692-9e6b-696361645f70,2.1*
G04 #@! TF.SameCoordinates,Original*
G04 #@! TF.FileFunction,Profile,NP*
%FSLAX46Y46*%
G04 Gerber Fmt 4.6, Leading zero omitted, Abs format (unit mm)*
G04 Created by KiCad (PCBNEW 9.0.7) date 2026-01-10 01:28:47*
%MOMM*%
%LPD*%
G01*
G04 APERTURE LIST*
G04 #@! TA.AperFunction,Profile*
%ADD10C,0.150000*%
G04 #@! TD*
G04 #@! TA.AperFunction,Profile*
%ADD11C,0.120000*%
G04 #@! TD*
G04 APERTURE END LIST*
D10*
X112910000Y-44494553D02*
X112927120Y-49451820D01*
X77553200Y-112721000D02*
G75*
G02*
X76892800Y-112060600I0J660400D01*
G01*
X130190000Y-43981200D02*
X113410000Y-43994553D01*
X94395447Y-61965847D02*
X77299200Y-61921000D01*
X166240498Y-53000000D02*
G75*
G02*
X166730402Y-53400020I2J-500000D01*
G01*
X149173200Y-53014020D02*
G75*
G02*
X148673180Y-52514020I0J500020D01*
G01*
X94897120Y-50451820D02*
X94895447Y-61465847D01*
X94895447Y-61465847D02*
G75*
G02*
X94395447Y-61965847I-500047J47D01*
G01*
X94672800Y-112060600D02*
X94672800Y-110689000D01*
X112910000Y-44494553D02*
G75*
G02*
X113410000Y-43994600I500000J-47D01*
G01*
X125254400Y-121185811D02*
G75*
G02*
X124898800Y-121052200I0J540011D01*
G01*
X76892800Y-112060600D02*
X76892800Y-110689000D01*
X167210400Y-53760020D02*
G75*
G02*
X166730386Y-53400024I0J500020D01*
G01*
X148173200Y-50514020D02*
X131190000Y-50498400D01*
X166240498Y-53000000D02*
X149173200Y-53014020D01*
X187500000Y-53750000D02*
X167210400Y-53760020D01*
X112503600Y-100807652D02*
G75*
G02*
X113174857Y-101239883I0J-737348D01*
G01*
X76842000Y-62378200D02*
G75*
G02*
X77299200Y-61921000I457200J0D01*
G01*
X175648000Y-133599800D02*
X188094000Y-111959000D01*
X112927120Y-49451820D02*
G75*
G02*
X112427120Y-49951820I-500020J20D01*
G01*
X112427120Y-49951820D02*
X95397120Y-49951820D01*
X148673200Y-52514020D02*
X148673200Y-51014020D01*
X143034400Y-121204600D02*
X160357200Y-125929000D01*
X175648000Y-133599800D02*
G75*
G02*
X174168670Y-133904593I-1039300J1301900D01*
G01*
X76892800Y-93721800D02*
X76892800Y-110689000D01*
X131190000Y-50498400D02*
G75*
G02*
X130690000Y-49998400I0J500000D01*
G01*
X148173200Y-50514020D02*
G75*
G02*
X148673180Y-51014020I0J-499980D01*
G01*
X160357200Y-125929000D02*
X174168668Y-133904600D01*
X113174857Y-101239883D02*
X124898800Y-121052200D01*
X130690000Y-49998400D02*
X130690000Y-44481200D01*
X94672800Y-112060600D02*
G75*
G02*
X94012400Y-112721000I-660400J0D01*
G01*
X94672800Y-110689000D02*
X94723600Y-101417252D01*
X125254400Y-121185811D02*
X143034400Y-121204600D01*
X76842000Y-62378200D02*
X76892800Y-76653000D01*
X188000000Y-54250000D02*
X188094000Y-111959000D01*
X94897120Y-50451820D02*
G75*
G02*
X95397120Y-49951820I499980J20D01*
G01*
X94723600Y-101417252D02*
G75*
G02*
X95333200Y-100807700I609600J-48D01*
G01*
X76892800Y-76653000D02*
X76892800Y-93721800D01*
X95333200Y-100807652D02*
X112503600Y-100807652D01*
X130190000Y-43981200D02*
G75*
G02*
X130690000Y-44481200I0J-500000D01*
G01*
X77553200Y-112721000D02*
X94012400Y-112721000D01*
X187500000Y-53750000D02*
G75*
G02*
X188000000Y-54250000I0J-500000D01*
G01*
D11*
X102200000Y-52150000D02*
X102200000Y-55250000D01*
X102200000Y-55250000D02*
X105800000Y-55250000D01*
X105800000Y-52150000D02*
X102200000Y-52150000D01*
X105800000Y-55250000D02*
X105800000Y-52150000D01*
X119950000Y-63200000D02*
X119950000Y-66300000D01*
X119950000Y-66300000D02*
X123550000Y-66300000D01*
X123550000Y-63200000D02*
X119950000Y-63200000D01*
X123550000Y-66300000D02*
X123550000Y-63200000D01*
X102200000Y-69200000D02*
X102200000Y-72300000D01*
X102200000Y-72300000D02*
X105800000Y-72300000D01*
X105800000Y-69200000D02*
X102200000Y-69200000D01*
X105800000Y-72300000D02*
X105800000Y-69200000D01*
X150610164Y-121031311D02*
X154087497Y-121963059D01*
X151412503Y-118036941D02*
X150610164Y-121031311D01*
X154087497Y-121963059D02*
X154889836Y-118968689D01*
X154889836Y-118968689D02*
X151412503Y-118036941D01*
X156200000Y-89200000D02*
X156200000Y-92300000D01*
X156200000Y-92300000D02*
X159800000Y-92300000D01*
X159800000Y-89200000D02*
X156200000Y-89200000D01*
X159800000Y-92300000D02*
X159800000Y-89200000D01*
X84200000Y-64200000D02*
X84200000Y-67300000D01*
X84200000Y-67300000D02*
X87800000Y-67300000D01*
X87800000Y-64200000D02*
X84200000Y-64200000D01*
X87800000Y-67300000D02*
X87800000Y-64200000D01*
X120200000Y-80200000D02*
X120200000Y-83300000D01*
X120200000Y-83300000D02*
X123800000Y-83300000D01*
X123800000Y-80200000D02*
X120200000Y-80200000D01*
X123800000Y-83300000D02*
X123800000Y-80200000D01*
X84200000Y-81200000D02*
X84200000Y-84300000D01*
X84200000Y-84300000D02*
X87800000Y-84300000D01*
X87800000Y-81200000D02*
X84200000Y-81200000D01*
X87800000Y-84300000D02*
X87800000Y-81200000D01*
X156200000Y-55200000D02*
X156200000Y-58300000D01*
X156200000Y-58300000D02*
X159800000Y-58300000D01*
X159800000Y-55200000D02*
X156200000Y-55200000D01*
X159800000Y-58300000D02*
X159800000Y-55200000D01*
X156200000Y-72200000D02*
X156200000Y-75300000D01*
X156200000Y-75300000D02*
X159800000Y-75300000D01*
X159800000Y-72200000D02*
X156200000Y-72200000D01*
X159800000Y-75300000D02*
X159800000Y-72200000D01*
X132200000Y-116200000D02*
X132200000Y-119300000D01*
X132200000Y-119300000D02*
X135800000Y-119300000D01*
X135800000Y-116200000D02*
X132200000Y-116200000D01*
X135800000Y-119300000D02*
X135800000Y-116200000D01*
X137950000Y-86825000D02*
X137950000Y-89925000D01*
X137950000Y-89925000D02*
X141550000Y-89925000D01*
X141550000Y-86825000D02*
X137950000Y-86825000D01*
X141550000Y-89925000D02*
X141550000Y-86825000D01*
X102200000Y-86200000D02*
X102200000Y-89300000D01*
X102200000Y-89300000D02*
X105800000Y-89300000D01*
X105800000Y-86200000D02*
X102200000Y-86200000D01*
X105800000Y-89300000D02*
X105800000Y-86200000D01*
X138200000Y-69825000D02*
X138200000Y-72925000D01*
X138200000Y-72925000D02*
X141800000Y-72925000D01*
X141800000Y-69825000D02*
X138200000Y-69825000D01*
X141800000Y-72925000D02*
X141800000Y-69825000D01*
X138200000Y-52825000D02*
X138200000Y-55925000D01*
X138200000Y-55925000D02*
X141800000Y-55925000D01*
X141800000Y-52825000D02*
X138200000Y-52825000D01*
X141800000Y-55925000D02*
X141800000Y-52825000D01*
X176507661Y-121783846D02*
X179192339Y-123333846D01*
X178307661Y-118666154D02*
X176507661Y-121783846D01*
X179192339Y-123333846D02*
X180992339Y-120216154D01*
X180992339Y-120216154D02*
X178307661Y-118666154D01*
X84200000Y-98200000D02*
X84200000Y-101300000D01*
X84200000Y-101300000D02*
X87800000Y-101300000D01*
X87800000Y-98200000D02*
X84200000Y-98200000D01*
X87800000Y-101300000D02*
X87800000Y-98200000D01*
X120200000Y-46200000D02*
X120200000Y-49300000D01*
X120200000Y-49300000D02*
X123800000Y-49300000D01*
X123800000Y-46200000D02*
X120200000Y-46200000D01*
X123800000Y-49300000D02*
X123800000Y-46200000D01*
M02*
