G04 #@! TF.GenerationSoftware,KiCad,Pcbnew,9.0.7*
G04 #@! TF.CreationDate,2026-01-09T01:13:13+01:00*
G04 #@! TF.ProjectId,chocofi,63686f63-6f66-4692-9e6b-696361645f70,2.1*
G04 #@! TF.SameCoordinates,Original*
G04 #@! TF.FileFunction,Copper,L3,Inr*
G04 #@! TF.FilePolarity,Positive*
%FSLAX46Y46*%
G04 Gerber Fmt 4.6, Leading zero omitted, Abs format (unit mm)*
G04 Created by KiCad (PCBNEW 9.0.7) date 2026-01-09 01:13:13*
%MOMM*%
%LPD*%
G01*
G04 APERTURE LIST*
G04 Aperture macros list*
%AMRoundRect*
0 Rectangle with rounded corners*
0 $1 Rounding radius*
0 $2 $3 $4 $5 $6 $7 $8 $9 X,Y pos of 4 corners*
0 Add a 4 corners polygon primitive as box body*
4,1,4,$2,$3,$4,$5,$6,$7,$8,$9,$2,$3,0*
0 Add four circle primitives for the rounded corners*
1,1,$1+$1,$2,$3*
1,1,$1+$1,$4,$5*
1,1,$1+$1,$6,$7*
1,1,$1+$1,$8,$9*
0 Add four rect primitives between the rounded corners*
20,1,$1+$1,$2,$3,$4,$5,0*
20,1,$1+$1,$4,$5,$6,$7,0*
20,1,$1+$1,$6,$7,$8,$9,0*
20,1,$1+$1,$8,$9,$2,$3,0*%
%AMRotRect*
0 Rectangle, with rotation*
0 The origin of the aperture is its center*
0 $1 length*
0 $2 width*
0 $3 Rotation angle, in degrees counterclockwise*
0 Add horizontal line*
21,1,$1,$2,0,0,$3*%
G04 Aperture macros list end*
G04 #@! TA.AperFunction,ComponentPad*
%ADD10C,1.752600*%
G04 #@! TD*
G04 #@! TA.AperFunction,ComponentPad*
%ADD11R,1.700000X1.000000*%
G04 #@! TD*
G04 #@! TA.AperFunction,ComponentPad*
%ADD12C,3.800000*%
G04 #@! TD*
G04 #@! TA.AperFunction,ComponentPad*
%ADD13RoundRect,0.150000X0.625000X-0.150000X0.625000X0.150000X-0.625000X0.150000X-0.625000X-0.150000X0*%
G04 #@! TD*
G04 #@! TA.AperFunction,ComponentPad*
%ADD14RoundRect,0.250000X0.650000X-0.350000X0.650000X0.350000X-0.650000X0.350000X-0.650000X-0.350000X0*%
G04 #@! TD*
G04 #@! TA.AperFunction,ComponentPad*
%ADD15RotRect,1.700000X1.000000X165.000000*%
G04 #@! TD*
G04 #@! TA.AperFunction,ComponentPad*
%ADD16RotRect,1.700000X1.000000X240.000000*%
G04 #@! TD*
G04 #@! TA.AperFunction,ComponentPad*
%ADD17RoundRect,0.250000X-0.750000X0.275000X-0.750000X-0.275000X0.750000X-0.275000X0.750000X0.275000X0*%
G04 #@! TD*
G04 #@! TA.AperFunction,ViaPad*
%ADD18C,0.600000*%
G04 #@! TD*
G04 #@! TA.AperFunction,Conductor*
%ADD19C,0.250000*%
G04 #@! TD*
G04 #@! TA.AperFunction,Conductor*
%ADD20C,0.500000*%
G04 #@! TD*
G04 APERTURE END LIST*
D10*
X186370000Y-59050000D03*
X186370000Y-61590000D03*
X186370000Y-64130000D03*
X186370000Y-66670000D03*
X186370000Y-69210000D03*
X186370000Y-71750000D03*
X186370000Y-74290000D03*
X186370000Y-76830000D03*
X186370000Y-79370000D03*
X186370000Y-81910000D03*
X186370000Y-84450000D03*
X186370000Y-86990000D03*
X171130000Y-86990000D03*
X171130000Y-84450000D03*
X171130000Y-81910000D03*
X171130000Y-79370000D03*
X171130000Y-76830000D03*
X171130000Y-74290000D03*
X171130000Y-71750000D03*
X171130000Y-69210000D03*
X171130000Y-66670000D03*
X171130000Y-64130000D03*
X171130000Y-61590000D03*
X171130000Y-59050000D03*
D11*
X106750000Y-53000000D03*
X106750000Y-54400000D03*
X101250000Y-54400000D03*
X101250000Y-53000000D03*
X124500000Y-64050000D03*
X124500000Y-65450000D03*
X119000000Y-65450000D03*
X119000000Y-64050000D03*
D12*
X148971000Y-69850000D03*
D13*
X179000000Y-93000000D03*
X179000000Y-92000000D03*
D14*
X176475000Y-94300000D03*
X176475000Y-90700000D03*
D12*
X185420000Y-106426000D03*
D11*
X106750000Y-70050000D03*
X106750000Y-71450000D03*
X101250000Y-71450000D03*
X101250000Y-70050000D03*
D15*
X149912531Y-119964396D03*
X150274877Y-118612101D03*
X155587469Y-120035604D03*
X155225123Y-121387899D03*
D12*
X123952000Y-104140000D03*
D11*
X160750000Y-90050000D03*
X160750000Y-91450000D03*
X155250000Y-91450000D03*
X155250000Y-90050000D03*
X88750000Y-65050000D03*
X88750000Y-66450000D03*
X83250000Y-66450000D03*
X83250000Y-65050000D03*
D12*
X167005000Y-110363000D03*
X171323000Y-96901000D03*
D10*
X169130000Y-57800000D03*
X169130000Y-60340000D03*
X169130000Y-62880000D03*
X169130000Y-65420000D03*
X169130000Y-67960000D03*
X169130000Y-70500000D03*
X169130000Y-73040000D03*
X169130000Y-75580000D03*
X169130000Y-78120000D03*
X169130000Y-80660000D03*
X169130000Y-83200000D03*
X169130000Y-85740000D03*
X184370000Y-85740000D03*
X184370000Y-83200000D03*
X184370000Y-80660000D03*
X184370000Y-78120000D03*
X184370000Y-75580000D03*
X184370000Y-73040000D03*
X184370000Y-70500000D03*
X184370000Y-67960000D03*
X184370000Y-65420000D03*
X184370000Y-62880000D03*
X184370000Y-60340000D03*
X184370000Y-57800000D03*
D11*
X124750000Y-81050000D03*
X124750000Y-82450000D03*
X119250000Y-82450000D03*
X119250000Y-81050000D03*
X88750000Y-82050000D03*
X88750000Y-83450000D03*
X83250000Y-83450000D03*
X83250000Y-82050000D03*
X160750000Y-56050000D03*
X160750000Y-57450000D03*
X155250000Y-57450000D03*
X155250000Y-56050000D03*
X160750000Y-73050000D03*
X160750000Y-74450000D03*
X155250000Y-74450000D03*
X155250000Y-73050000D03*
X131250000Y-118450000D03*
X131250000Y-117050000D03*
X136750000Y-117050000D03*
X136750000Y-118450000D03*
X142500000Y-87675000D03*
X142500000Y-89075000D03*
X137000000Y-89075000D03*
X137000000Y-87675000D03*
D13*
X185825000Y-93000000D03*
X185825000Y-92000000D03*
D14*
X183300000Y-94300000D03*
X183300000Y-90700000D03*
D11*
X106750000Y-87050000D03*
X106750000Y-88450000D03*
X101250000Y-88450000D03*
X101250000Y-87050000D03*
D12*
X95000000Y-83820000D03*
X95000000Y-66802000D03*
D11*
X142750000Y-70675000D03*
X142750000Y-72075000D03*
X137250000Y-72075000D03*
X137250000Y-70675000D03*
X142750000Y-53675000D03*
X142750000Y-55075000D03*
X137250000Y-55075000D03*
X137250000Y-53675000D03*
D16*
X177981218Y-123731570D03*
X176768782Y-123031570D03*
X179518782Y-118268430D03*
X180731218Y-118968430D03*
D11*
X88750000Y-99050000D03*
X88750000Y-100450000D03*
X83250000Y-100450000D03*
X83250000Y-99050000D03*
D17*
X184500000Y-98275000D03*
X184500000Y-102725000D03*
D11*
X124750000Y-47050000D03*
X124750000Y-48450000D03*
X119250000Y-48450000D03*
X119250000Y-47050000D03*
D18*
X101500000Y-94250000D03*
X84000000Y-107000000D03*
X91000000Y-106000000D03*
X137000000Y-84250000D03*
X137000000Y-67000000D03*
X145750000Y-66250000D03*
X126500000Y-67000000D03*
X120000000Y-67250000D03*
X176000000Y-56750000D03*
X156000000Y-87000000D03*
X151000000Y-72000000D03*
X136750000Y-75750000D03*
X141327302Y-77849800D03*
X153000000Y-72000000D03*
X160750000Y-70000000D03*
X121250000Y-73000000D03*
X138500000Y-95790500D03*
X153250000Y-105000000D03*
X125175000Y-78000000D03*
X127250000Y-78000000D03*
X149000000Y-56250000D03*
X149000000Y-58750000D03*
X167000000Y-55462500D03*
X167000000Y-57537500D03*
X167000000Y-59750000D03*
X167000000Y-62250000D03*
X149635000Y-65150000D03*
X154635000Y-67350000D03*
X161185000Y-67350000D03*
X166185000Y-65150000D03*
X109287500Y-67000000D03*
X107212500Y-67000000D03*
X100750000Y-67000000D03*
X98250000Y-67000000D03*
X95635000Y-62150000D03*
X100635000Y-64350000D03*
X107185000Y-64350000D03*
X113635000Y-56150000D03*
X112185000Y-62150000D03*
X131635000Y-62770000D03*
X145537500Y-67500000D03*
X143462500Y-67500000D03*
X136635000Y-64970000D03*
X143185000Y-64970000D03*
X148185000Y-62770000D03*
X116500000Y-61000000D03*
X118635000Y-58350000D03*
X119000000Y-61000000D03*
X125185000Y-58350000D03*
X125962500Y-61000000D03*
X128037500Y-61000000D03*
X130185000Y-56150000D03*
X131000000Y-67750000D03*
X131000000Y-70250000D03*
X130185000Y-73150000D03*
X125185000Y-75350000D03*
X118635000Y-75350000D03*
X113635000Y-73150000D03*
X109287500Y-84000000D03*
X107212500Y-84000000D03*
X101000000Y-84000000D03*
X98500000Y-84000000D03*
X100635000Y-81350000D03*
X107185000Y-81350000D03*
X112185000Y-79150000D03*
X149000000Y-86962500D03*
X149000000Y-89037500D03*
X149000000Y-91250000D03*
X149000000Y-93750000D03*
X131635000Y-79770000D03*
X136635000Y-81970000D03*
X143185000Y-81970000D03*
X143462500Y-84500000D03*
X145537500Y-84500000D03*
X149000000Y-74250000D03*
X149000000Y-76750000D03*
X148185000Y-79770000D03*
X149635000Y-82150000D03*
X154635000Y-84350000D03*
X161185000Y-84350000D03*
X167000000Y-72462500D03*
X167000000Y-74537500D03*
X167000000Y-76750000D03*
X167000000Y-79250000D03*
X166185000Y-82150000D03*
X167000000Y-89462500D03*
X167000000Y-91537500D03*
X167000000Y-93750000D03*
X167000000Y-96250000D03*
X179075000Y-100500000D03*
X181537500Y-106250000D03*
X179462500Y-106250000D03*
X177000000Y-106250000D03*
X174500000Y-106250000D03*
X175549905Y-109748640D03*
X171144649Y-112978767D03*
X167869649Y-118651233D03*
X167274905Y-124081360D03*
X125735000Y-109240000D03*
X130735000Y-107040000D03*
X142285000Y-109240000D03*
X137285000Y-107040000D03*
X163023608Y-114099506D03*
X147037535Y-109816051D03*
X152436566Y-108985109D03*
X158763380Y-110680374D03*
X164537500Y-106500000D03*
X162462500Y-106500000D03*
X160250000Y-106500000D03*
X157750000Y-106500000D03*
X166185000Y-99150000D03*
X161185000Y-101350000D03*
X154635000Y-101350000D03*
X149635000Y-99150000D03*
X131635000Y-96775000D03*
X148185000Y-96775000D03*
X143185000Y-98975000D03*
X136635000Y-98975000D03*
X140750000Y-103000000D03*
X138675000Y-103000000D03*
X136250000Y-103000000D03*
X133750000Y-103000000D03*
X131000000Y-83712500D03*
X131000000Y-85787500D03*
X127000000Y-95500000D03*
X127000000Y-98000000D03*
X130185000Y-90150000D03*
X125185000Y-92350000D03*
X118635000Y-92350000D03*
X113635000Y-90150000D03*
X113000000Y-85462500D03*
X113000000Y-87537500D03*
X115500000Y-96250000D03*
X115500000Y-98750000D03*
X112185000Y-96150000D03*
X107185000Y-98350000D03*
X100635000Y-98350000D03*
X95635000Y-96150000D03*
X95000000Y-86712500D03*
X95000000Y-88787500D03*
X95000000Y-99750000D03*
X91537500Y-96000000D03*
X89462500Y-96000000D03*
X82500000Y-96000000D03*
X80000000Y-96000000D03*
X95635000Y-79150000D03*
X91537500Y-79000000D03*
X89462500Y-79000000D03*
X82750000Y-79000000D03*
X80250000Y-79000000D03*
X77635000Y-74150000D03*
X94185000Y-74150000D03*
X89185000Y-76350000D03*
X82635000Y-76350000D03*
X94185000Y-91150000D03*
X89185000Y-93350000D03*
X82635000Y-93350000D03*
X77635000Y-91150000D03*
X89185000Y-110350000D03*
X77635000Y-108150000D03*
X94185000Y-108150000D03*
X82635000Y-110350000D03*
D19*
X184500000Y-98275000D02*
X181000000Y-94775000D01*
X181000000Y-94775000D02*
X181000000Y-74000000D01*
X181000000Y-74000000D02*
X171130000Y-64130000D01*
X83250000Y-66450000D02*
X83250000Y-74750000D01*
X82009000Y-82811000D02*
X82648000Y-83450000D01*
X83250000Y-74750000D02*
X82009000Y-75991000D01*
X82009000Y-75991000D02*
X82009000Y-82811000D01*
X82648000Y-83450000D02*
X83250000Y-83450000D01*
D20*
X171130000Y-61590000D02*
X170420000Y-61590000D01*
X170420000Y-61590000D02*
X169130000Y-62880000D01*
D19*
X171130000Y-71750000D02*
X155018225Y-71750000D01*
X149518225Y-66250000D02*
X145750000Y-66250000D01*
X155018225Y-71750000D02*
X149518225Y-66250000D01*
X171130000Y-76830000D02*
X167805298Y-76830000D01*
X139791000Y-85126000D02*
X136635000Y-81970000D01*
X167805298Y-76830000D02*
X164958398Y-79676900D01*
X164958398Y-79676900D02*
X159660224Y-79676900D01*
X159660224Y-79676900D02*
X155820236Y-83516888D01*
X155820236Y-83516888D02*
X154266887Y-83516888D01*
X154266887Y-83516888D02*
X152657775Y-85126000D01*
X152657775Y-85126000D02*
X139791000Y-85126000D01*
X171130000Y-79370000D02*
X168005298Y-79370000D01*
X168005298Y-79370000D02*
X164836000Y-82539298D01*
X164836000Y-82947775D02*
X163433775Y-84350000D01*
X164836000Y-82539298D02*
X164836000Y-82947775D01*
X163433775Y-84350000D02*
X161185000Y-84350000D01*
X106953202Y-84626000D02*
X112961085Y-84626000D01*
X139023376Y-78160500D02*
X141016602Y-78160500D01*
X138362876Y-77500000D02*
X139023376Y-78160500D01*
X118961085Y-78626000D02*
X133170900Y-78626000D01*
X106108000Y-80625124D02*
X106108000Y-83780798D01*
X106108000Y-83780798D02*
X106953202Y-84626000D01*
X133170900Y-78626000D02*
X134296900Y-77500000D01*
X102706876Y-77224000D02*
X106108000Y-80625124D01*
X141016602Y-78160500D02*
X141327302Y-77849800D01*
X112961085Y-84626000D02*
X118961085Y-78626000D01*
X134296900Y-77500000D02*
X138362876Y-77500000D01*
X89185000Y-76350000D02*
X90059000Y-77224000D01*
X90059000Y-77224000D02*
X102706876Y-77224000D01*
X113635000Y-90150000D02*
X121485000Y-98000000D01*
X121485000Y-98000000D02*
X127000000Y-98000000D01*
X149000000Y-74250000D02*
X142500000Y-67750000D01*
X142500000Y-67750000D02*
X131000000Y-67750000D01*
X167000000Y-76750000D02*
X166250000Y-76000000D01*
X166250000Y-76000000D02*
X150750000Y-76000000D01*
X150750000Y-76000000D02*
X149000000Y-74250000D01*
X105776000Y-94224000D02*
X104500000Y-95500000D01*
X113474000Y-94224000D02*
X105776000Y-94224000D01*
X102283775Y-95500000D02*
X98033775Y-99750000D01*
X115500000Y-96250000D02*
X113474000Y-94224000D01*
X104500000Y-95500000D02*
X102283775Y-95500000D01*
X98033775Y-99750000D02*
X95000000Y-99750000D01*
X106750000Y-71450000D02*
X106559000Y-71641000D01*
X106559000Y-71641000D02*
X106559000Y-83346500D01*
X106559000Y-83346500D02*
X107212500Y-84000000D01*
X106750000Y-54400000D02*
X106559000Y-54591000D01*
X106559000Y-54591000D02*
X106559000Y-66346500D01*
X106559000Y-66346500D02*
X107212500Y-67000000D01*
X124500000Y-65450000D02*
X124500000Y-77325000D01*
X124500000Y-77325000D02*
X125175000Y-78000000D01*
X124750000Y-48450000D02*
X124750000Y-57029702D01*
X125962500Y-58242202D02*
X125962500Y-61000000D01*
X124750000Y-57029702D02*
X125962500Y-58242202D01*
X142750000Y-72075000D02*
X142750000Y-80649702D01*
X142750000Y-80649702D02*
X143811000Y-81710702D01*
X143811000Y-81710702D02*
X143811000Y-84151500D01*
X143811000Y-84151500D02*
X143462500Y-84500000D01*
X142750000Y-55075000D02*
X142750000Y-63500000D01*
X142750000Y-63500000D02*
X143811000Y-64561000D01*
X143811000Y-64561000D02*
X143811000Y-67151500D01*
X143811000Y-67151500D02*
X143462500Y-67500000D01*
X160750000Y-57450000D02*
X161577085Y-57450000D01*
X161577085Y-57450000D02*
X163564585Y-55462500D01*
X163564585Y-55462500D02*
X167000000Y-55462500D01*
X160750000Y-74450000D02*
X161550000Y-75250000D01*
X161550000Y-75250000D02*
X164212500Y-75250000D01*
X164212500Y-75250000D02*
X167000000Y-72462500D01*
X176768782Y-123031570D02*
X176050506Y-122313294D01*
X176050506Y-122313294D02*
X176050506Y-120949494D01*
X176133100Y-115383100D02*
X176133100Y-110116900D01*
X176050506Y-120949494D02*
X176800500Y-120199500D01*
X176800500Y-120199500D02*
X176800500Y-116050500D01*
X176800500Y-116050500D02*
X176133100Y-115383100D01*
X176133100Y-110116900D02*
X179462500Y-106787500D01*
X179462500Y-106787500D02*
X179462500Y-106250000D01*
X150274877Y-118612101D02*
X150274877Y-116337999D01*
X150274877Y-116337999D02*
X153612876Y-113000000D01*
X153612876Y-113000000D02*
X157329052Y-113000000D01*
X157329052Y-113000000D02*
X162462500Y-107866552D01*
X162462500Y-107866552D02*
X162462500Y-106500000D01*
X131250000Y-117050000D02*
X131250000Y-112523775D01*
X131250000Y-112523775D02*
X136659000Y-107114775D01*
X136659000Y-107114775D02*
X136659000Y-105016000D01*
X136659000Y-105016000D02*
X138675000Y-103000000D01*
X160750000Y-91450000D02*
X161577085Y-91450000D01*
X161577085Y-91450000D02*
X163564585Y-89462500D01*
X163564585Y-89462500D02*
X167000000Y-89462500D01*
X142500000Y-89075000D02*
X143171300Y-89746300D01*
X143171300Y-89746300D02*
X146216200Y-89746300D01*
X146216200Y-89746300D02*
X149000000Y-86962500D01*
X124750000Y-82450000D02*
X126012500Y-83712500D01*
X126012500Y-83712500D02*
X131000000Y-83712500D01*
X106750000Y-88450000D02*
X107577085Y-88450000D01*
X107577085Y-88450000D02*
X110564585Y-85462500D01*
X110564585Y-85462500D02*
X113000000Y-85462500D01*
X88750000Y-100450000D02*
X89577085Y-100450000D01*
X89577085Y-100450000D02*
X95626000Y-94401085D01*
X95626000Y-94401085D02*
X95626000Y-87338500D01*
X95626000Y-87338500D02*
X95000000Y-86712500D01*
X88750000Y-66450000D02*
X88559000Y-66641000D01*
X88559000Y-66641000D02*
X88559000Y-78096500D01*
X88559000Y-78096500D02*
X89462500Y-79000000D01*
X88750000Y-83450000D02*
X88559000Y-83641000D01*
X88559000Y-83641000D02*
X88559000Y-95096500D01*
X88559000Y-95096500D02*
X89462500Y-96000000D01*
M02*
