M48
; DRILL file {KiCad 9.0.7} date 2026-01-10T01:28:49+0100
; FORMAT={-:-/ absolute / metric / decimal}
; #@! TF.CreationDate,2026-01-10T01:28:49+01:00
; #@! TF.GenerationSoftware,Kicad,Pcbnew,9.0.7
; #@! TF.FileFunction,Plated,1,4,PTH
FMAT,2
METRIC
; #@! TA.AperFunction,Plated,PTH,ViaDrill
T1C0.400
; #@! TA.AperFunction,Plated,PTH,ComponentDrill
T2C1.092
; #@! TA.AperFunction,Plated,PTH,ComponentDrill
T3C2.200
%
G90
G05
T1
X80.0Y-96.0
X80.25Y-79.0
X87.75Y-96.815
X88.1Y-90.66
X88.359Y-84.635
X89.0Y-67.632
X89.185Y-76.35
X89.185Y-93.35
X89.185Y-110.35
X89.609Y-96.0
X90.3Y-63.42
X90.36Y-97.44
X90.54Y-80.8
X90.78Y-98.45
X91.553Y-68.266
X91.71Y-98.57
X92.25Y-80.76
X92.25Y-97.86
X92.281Y-100.351
X93.09Y-94.54
X93.52Y-87.69
X93.743Y-80.153
X93.95Y-64.38
X94.087Y-108.149
X94.185Y-74.15
X94.185Y-91.15
X94.952Y-86.664
X95.0Y-99.75
X95.51Y-81.15
X95.635Y-79.15
X96.99Y-88.79
X98.25Y-67.0
X98.5Y-84.0
X98.872Y-90.132
X100.83Y-92.56
X100.888Y-57.728
X101.43Y-59.16
X102.49Y-73.08
X106.76Y-79.05
X107.185Y-64.35
X107.185Y-98.35
X107.212Y-84.0
X107.385Y-81.35
X107.4Y-85.61
X107.64Y-68.69
X108.63Y-51.4
X109.28Y-86.54
X109.35Y-69.04
X110.03Y-89.121
X110.28Y-86.31
X111.53Y-53.0
X111.979Y-83.726
X112.185Y-62.15
X112.185Y-96.15
X112.57Y-68.74
X115.5Y-96.25
X115.78Y-67.57
X116.5Y-61.0
X117.47Y-83.1
X118.41Y-49.61
X119.452Y-66.635
X125.185Y-58.35
X125.185Y-75.35
X125.185Y-92.35
X125.57Y-45.36
X125.735Y-109.24
X125.81Y-79.57
X125.973Y-61.011
X126.22Y-62.69
X127.0Y-95.5
X127.44Y-80.27
X127.52Y-115.68
X128.37Y-63.26
X129.23Y-81.05
X129.875Y-65.165
X129.9Y-115.644
X130.185Y-56.15
X130.185Y-73.15
X130.185Y-90.15
X130.735Y-107.04
X130.84Y-114.56
X131.0Y-67.75
X131.15Y-112.43
X131.84Y-52.48
X132.55Y-56.151
X132.76Y-87.3
X133.75Y-103.0
X133.94Y-82.19
X135.342Y-55.7
X135.49Y-72.7
X135.69Y-85.0
X136.38Y-109.88
X136.73Y-111.98
X138.675Y-103.0
X141.18Y-68.42
X142.77Y-102.94
X143.185Y-64.97
X143.185Y-81.97
X143.185Y-98.975
X143.795Y-120.055
X144.33Y-86.49
X144.65Y-52.11
X144.93Y-87.05
X145.605Y-89.865
X145.67Y-69.57
X145.87Y-86.43
X145.95Y-115.81
X146.37Y-119.01
X147.038Y-109.816
X147.08Y-88.39
X147.83Y-85.17
X148.138Y-72.101
X148.185Y-62.77
X148.185Y-79.77
X148.185Y-96.775
X149.0Y-56.25
X149.0Y-74.25
X149.0Y-91.25
X150.16Y-80.09
X150.53Y-89.951
X151.1Y-117.17
X151.31Y-89.19
X151.95Y-75.121
X152.171Y-55.379
X152.437Y-108.985
X152.943Y-113.553
X153.16Y-71.34
X153.26Y-72.59
X153.76Y-88.02
X155.96Y-86.72
X157.44Y-122.742
X157.49Y-113.03
X157.75Y-106.5
X158.35Y-88.02
X161.185Y-67.35
X161.185Y-84.35
X161.185Y-101.35
X161.95Y-54.774
X162.11Y-71.55
X162.32Y-88.65
X162.463Y-106.5
X163.87Y-58.6
X164.04Y-75.14
X164.51Y-55.54
X165.746Y-90.716
X166.185Y-65.15
X166.185Y-82.15
X166.185Y-99.15
X167.0Y-55.462
X167.0Y-59.75
X167.0Y-76.75
X167.0Y-93.75
X167.03Y-105.98
X167.275Y-124.081
X167.87Y-118.651
X168.52Y-55.99
X170.5Y-91.78
X174.5Y-106.25
X174.63Y-124.593
X175.079Y-122.189
X176.9Y-124.96
X177.99Y-116.74
X178.15Y-126.82
X179.14Y-90.21
X179.14Y-96.77
X180.452Y-92.0
X181.06Y-103.9
X185.578Y-94.728
X187.38Y-94.51
X187.552Y-90.272
T2
X169.13Y-57.8
X169.13Y-60.34
X169.13Y-62.88
X169.13Y-65.42
X169.13Y-67.96
X169.13Y-70.5
X169.13Y-73.04
X169.13Y-75.58
X169.13Y-78.12
X169.13Y-80.66
X169.13Y-83.2
X169.13Y-85.74
X171.13Y-59.05
X171.13Y-61.59
X171.13Y-64.13
X171.13Y-66.67
X171.13Y-69.21
X171.13Y-71.75
X171.13Y-74.29
X171.13Y-76.83
X171.13Y-79.37
X171.13Y-81.91
X171.13Y-84.45
X171.13Y-86.99
X184.37Y-57.8
X184.37Y-60.34
X184.37Y-62.88
X184.37Y-65.42
X184.37Y-67.96
X184.37Y-70.5
X184.37Y-73.04
X184.37Y-75.58
X184.37Y-78.12
X184.37Y-80.66
X184.37Y-83.2
X184.37Y-85.74
X186.37Y-59.05
X186.37Y-61.59
X186.37Y-64.13
X186.37Y-66.67
X186.37Y-69.21
X186.37Y-71.75
X186.37Y-74.29
X186.37Y-76.83
X186.37Y-79.37
X186.37Y-81.91
X186.37Y-84.45
X186.37Y-86.99
T3
X95.0Y-66.802
X95.0Y-83.82
X123.952Y-104.14
X148.971Y-69.85
X167.005Y-110.363
X171.323Y-96.901
X185.42Y-106.426
M30
