M48
; DRILL file {KiCad 9.0.7} date 2026-01-09T00:20:40+0100
; FORMAT={-:-/ absolute / metric / decimal}
; #@! TF.CreationDate,2026-01-09T00:20:40+01:00
; #@! TF.GenerationSoftware,Kicad,Pcbnew,9.0.7
; #@! TF.FileFunction,Plated,1,2,PTH
FMAT,2
METRIC
; #@! TA.AperFunction,Plated,PTH,ViaDrill
T1C0.400
; #@! TA.AperFunction,Plated,PTH,ComponentDrill
T2C0.400
; #@! TA.AperFunction,Plated,PTH,ComponentDrill
T3C1.092
; #@! TA.AperFunction,Plated,PTH,ComponentDrill
T4C2.200
%
G90
G05
T1
X78.0Y-72.0
X80.155Y-77.845
X82.5Y-96.0
X82.635Y-93.35
X82.75Y-79.0
X83.0Y-71.0
X84.5Y-74.5
X89.0Y-89.0
X89.185Y-110.35
X89.462Y-79.0
X90.0Y-85.0
X90.0Y-85.0
X91.537Y-79.0
X91.537Y-96.0
X93.5Y-95.0
X93.5Y-96.5
X94.0Y-87.0
X94.087Y-108.149
X94.185Y-91.15
X97.0Y-55.5
X97.5Y-72.5
X98.5Y-52.0
X98.835Y-65.0
X99.0Y-67.5
X100.635Y-64.35
X101.5Y-61.5
X107.185Y-64.35
X107.185Y-81.35
X107.185Y-98.35
X107.537Y-93.037
X108.0Y-51.0
X108.387Y-83.613
X111.5Y-55.5
X111.5Y-88.0
X112.5Y-64.5
X112.528Y-95.807
X113.0Y-54.037
X113.0Y-71.037
X114.111Y-97.389
X114.5Y-66.0
X115.0Y-49.5
X115.0Y-75.5
X115.5Y-67.0
X117.5Y-67.0
X118.635Y-58.35
X118.635Y-92.35
X119.5Y-61.899
X122.5Y-61.0
X124.0Y-55.0
X125.185Y-75.35
X125.185Y-92.35
X125.735Y-109.24
X126.0Y-62.5
X126.5Y-94.5
X128.037Y-61.0
X128.5Y-81.5
X129.5Y-53.0
X130.5Y-92.5
X130.549Y-105.049
X131.0Y-60.5
X131.0Y-65.537
X131.0Y-82.537
X131.635Y-96.775
X131.804Y-79.446
X132.5Y-58.0
X132.5Y-115.0
X133.0Y-84.5
X133.869Y-57.674
X133.899Y-56.583
X134.0Y-67.5
X135.5Y-68.0
X136.0Y-101.5
X136.25Y-103.0
X136.635Y-64.97
X136.635Y-81.97
X137.285Y-107.04
X140.75Y-103.0
X142.5Y-59.0
X143.185Y-81.97
X143.463Y-67.5
X143.463Y-84.5
X143.5Y-57.226
X144.0Y-101.5
X144.0Y-105.5
X145.537Y-67.5
X145.537Y-84.5
X147.038Y-109.816
X148.0Y-53.5
X148.185Y-62.77
X148.5Y-106.0
X149.0Y-86.962
X149.0Y-89.037
X149.5Y-57.5
X149.635Y-65.15
X150.47Y-55.47
X150.5Y-95.0
X150.5Y-107.5
X153.0Y-87.0
X154.5Y-112.5
X154.635Y-67.35
X154.635Y-84.35
X156.0Y-59.0
X160.154Y-76.885
X160.25Y-106.5
X161.0Y-87.0
X161.185Y-101.35
X161.609Y-78.5
X162.0Y-103.5
X163.0Y-71.0
X164.537Y-106.5
X164.934Y-57.434
X165.5Y-58.0
X167.0Y-59.75
X167.0Y-74.537
X167.0Y-76.75
X167.0Y-91.537
X167.0Y-93.75
X171.145Y-112.979
X171.5Y-89.0
X174.0Y-98.5
X174.5Y-106.25
X175.55Y-109.749
X175.55Y-109.749
X176.0Y-62.5
X179.5Y-59.0
X180.5Y-94.0
X181.537Y-106.25
T2
X83.25Y-65.05
X83.25Y-66.45
X83.25Y-82.05
X83.25Y-83.45
X83.25Y-99.05
X83.25Y-100.45
X88.75Y-65.05
X88.75Y-66.45
X88.75Y-82.05
X88.75Y-83.45
X88.75Y-99.05
X88.75Y-100.45
X101.25Y-53.0
X101.25Y-54.4
X101.25Y-70.05
X101.25Y-71.45
X101.25Y-87.05
X101.25Y-88.45
X106.75Y-53.0
X106.75Y-54.4
X106.75Y-70.05
X106.75Y-71.45
X106.75Y-87.05
X106.75Y-88.45
X119.0Y-64.05
X119.0Y-65.45
X119.25Y-47.05
X119.25Y-48.45
X119.25Y-81.05
X119.25Y-82.45
X124.5Y-64.05
X124.5Y-65.45
X124.75Y-47.05
X124.75Y-48.45
X124.75Y-81.05
X124.75Y-82.45
X131.25Y-117.05
X131.25Y-118.45
X136.75Y-117.05
X136.75Y-118.45
X137.0Y-87.675
X137.0Y-89.075
X137.25Y-53.675
X137.25Y-55.075
X137.25Y-70.675
X137.25Y-72.075
X142.5Y-87.675
X142.5Y-89.075
X142.75Y-53.675
X142.75Y-55.075
X142.75Y-70.675
X142.75Y-72.075
X149.913Y-119.964
X150.275Y-118.612
X155.225Y-121.388
X155.25Y-56.05
X155.25Y-57.45
X155.25Y-73.05
X155.25Y-74.45
X155.25Y-90.05
X155.25Y-91.45
X155.587Y-120.036
X160.75Y-56.05
X160.75Y-57.45
X160.75Y-73.05
X160.75Y-74.45
X160.75Y-90.05
X160.75Y-91.45
X176.475Y-90.7
X176.475Y-94.3
X176.769Y-123.032
X177.981Y-123.732
X179.0Y-92.0
X179.0Y-93.0
X179.519Y-118.268
X180.731Y-118.968
X183.3Y-90.7
X183.3Y-94.3
X184.5Y-98.275
X184.5Y-102.725
X185.825Y-92.0
X185.825Y-93.0
T3
X170.38Y-57.8
X170.38Y-60.34
X170.38Y-62.88
X170.38Y-65.42
X170.38Y-67.96
X170.38Y-70.5
X170.38Y-73.04
X170.38Y-75.58
X170.38Y-78.12
X170.38Y-80.66
X170.38Y-83.2
X170.38Y-85.74
X185.62Y-57.8
X185.62Y-60.34
X185.62Y-62.88
X185.62Y-65.42
X185.62Y-67.96
X185.62Y-70.5
X185.62Y-73.04
X185.62Y-75.58
X185.62Y-78.12
X185.62Y-80.66
X185.62Y-83.2
X185.62Y-85.74
T4
X95.0Y-66.802
X95.0Y-83.82
X123.952Y-104.14
X148.971Y-69.85
X167.005Y-110.363
X171.323Y-96.901
X185.42Y-106.426
M30
