G04 #@! TF.GenerationSoftware,KiCad,Pcbnew,9.0.7*
G04 #@! TF.CreationDate,2026-01-10T01:28:44+01:00*
G04 #@! TF.ProjectId,chocofi,63686f63-6f66-4692-9e6b-696361645f70,2.1*
G04 #@! TF.SameCoordinates,Original*
G04 #@! TF.FileFunction,Copper,L2,Inr*
G04 #@! TF.FilePolarity,Positive*
%FSLAX46Y46*%
G04 Gerber Fmt 4.6, Leading zero omitted, Abs format (unit mm)*
G04 Created by KiCad (PCBNEW 9.0.7) date 2026-01-10 01:28:44*
%MOMM*%
%LPD*%
G01*
G04 APERTURE LIST*
G04 #@! TA.AperFunction,ComponentPad*
%ADD10C,3.800000*%
G04 #@! TD*
G04 #@! TA.AperFunction,ComponentPad*
%ADD11C,1.752600*%
G04 #@! TD*
G04 #@! TA.AperFunction,ViaPad*
%ADD12C,0.600000*%
G04 #@! TD*
G04 #@! TA.AperFunction,Conductor*
%ADD13C,0.500000*%
G04 #@! TD*
G04 #@! TA.AperFunction,Conductor*
%ADD14C,0.250000*%
G04 #@! TD*
G04 APERTURE END LIST*
D10*
X148971000Y-69850000D03*
X185420000Y-106426000D03*
X123952000Y-104140000D03*
X167005000Y-110363000D03*
X171323000Y-96901000D03*
D11*
X169130000Y-57800000D03*
X169130000Y-60340000D03*
X169130000Y-62880000D03*
X169130000Y-65420000D03*
X169130000Y-67960000D03*
X169130000Y-70500000D03*
X169130000Y-73040000D03*
X169130000Y-75580000D03*
X169130000Y-78120000D03*
X169130000Y-80660000D03*
X169130000Y-83200000D03*
X169130000Y-85740000D03*
X184370000Y-85740000D03*
X184370000Y-83200000D03*
X184370000Y-80660000D03*
X184370000Y-78120000D03*
X184370000Y-75580000D03*
X184370000Y-73040000D03*
X184370000Y-70500000D03*
X184370000Y-67960000D03*
X184370000Y-65420000D03*
X184370000Y-62880000D03*
X184370000Y-60340000D03*
X184370000Y-57800000D03*
D10*
X95000000Y-83820000D03*
X95000000Y-66802000D03*
D11*
X186370000Y-59050000D03*
X186370000Y-61590000D03*
X186370000Y-64130000D03*
X186370000Y-66670000D03*
X186370000Y-69210000D03*
X186370000Y-71750000D03*
X186370000Y-74290000D03*
X186370000Y-76830000D03*
X186370000Y-79370000D03*
X186370000Y-81910000D03*
X186370000Y-84450000D03*
X186370000Y-86990000D03*
X171130000Y-86990000D03*
X171130000Y-84450000D03*
X171130000Y-81910000D03*
X171130000Y-79370000D03*
X171130000Y-76830000D03*
X171130000Y-74290000D03*
X171130000Y-71750000D03*
X171130000Y-69210000D03*
X171130000Y-66670000D03*
X171130000Y-64130000D03*
X171130000Y-61590000D03*
X171130000Y-59050000D03*
D12*
X180452322Y-92000000D03*
X164040000Y-75140000D03*
X187552500Y-90272500D03*
X174630000Y-124593002D03*
X177990000Y-116740000D03*
X176900000Y-124960000D03*
X107212500Y-84000000D03*
X149000000Y-56250000D03*
X179140000Y-96770000D03*
X187380000Y-94510000D03*
X167000000Y-59750000D03*
X116500000Y-61000000D03*
X98250000Y-67000000D03*
X80250000Y-79000000D03*
X98500000Y-84000000D03*
X149000000Y-74250000D03*
X80000000Y-96000000D03*
X167000000Y-76750000D03*
X131000000Y-67750000D03*
X91553500Y-68266500D03*
X127000000Y-95500000D03*
X95000000Y-99750000D03*
X115500000Y-96250000D03*
X149000000Y-91250000D03*
X167000000Y-93750000D03*
X101430000Y-59160000D03*
X133750000Y-103000000D03*
X157750000Y-106500000D03*
X174500000Y-106250000D03*
X118410000Y-49610000D03*
X125973192Y-61010692D03*
X132550000Y-56151000D03*
X135341953Y-55700136D03*
X163870000Y-58600000D03*
X167000000Y-55462500D03*
X89609000Y-96000000D03*
X93520000Y-87690000D03*
X106760000Y-79050000D03*
X119451895Y-66634500D03*
X126220000Y-62690000D03*
X108630000Y-51400000D03*
X145950000Y-115810000D03*
X125810000Y-79570000D03*
X100830000Y-92560000D03*
X112570000Y-68740000D03*
X90300000Y-63420000D03*
X164510000Y-55540000D03*
X144650000Y-52110000D03*
X162110000Y-71550000D03*
X141180000Y-68420000D03*
X90780000Y-98450000D03*
X147830000Y-85170000D03*
X179140000Y-90210000D03*
X87750000Y-96815000D03*
X144330000Y-86490000D03*
X107640000Y-68690000D03*
X125570000Y-45360000D03*
X133940000Y-82190000D03*
X178150000Y-126820000D03*
X107400000Y-85610000D03*
X130840000Y-114560000D03*
X162320000Y-88650000D03*
X95510000Y-81150000D03*
X90540000Y-80800000D03*
X135690000Y-85000000D03*
X110280000Y-86310000D03*
X145870000Y-86430000D03*
X92250000Y-97860000D03*
X132760000Y-87300000D03*
X128370000Y-63260000D03*
X127440000Y-80270000D03*
X170500000Y-91780000D03*
X168520000Y-55990000D03*
X96990000Y-88790000D03*
X181060000Y-103900000D03*
X151310000Y-89190000D03*
X109350000Y-69040000D03*
X145670000Y-69570000D03*
X142770000Y-102940000D03*
X92250000Y-80760000D03*
X167030000Y-105980000D03*
X89185000Y-76350000D03*
X89185000Y-93350000D03*
X89185000Y-110350000D03*
X107385000Y-81350000D03*
X107185000Y-64350000D03*
X107185000Y-98350000D03*
X130735000Y-107040000D03*
X125185000Y-92350000D03*
X125185000Y-58350000D03*
X125185000Y-75350000D03*
X143185000Y-98975000D03*
X152436566Y-108985109D03*
X143185000Y-81970000D03*
X143185000Y-64970000D03*
X161185000Y-101350000D03*
X161185000Y-84350000D03*
X161185000Y-67350000D03*
X167869649Y-118651233D03*
X135490000Y-72700000D03*
X161950000Y-54774000D03*
X153260000Y-72590000D03*
X88100000Y-90660000D03*
X91710000Y-98570000D03*
X94951808Y-86664308D03*
X110030000Y-89121300D03*
X117470000Y-83100000D03*
X147080000Y-88390000D03*
X145605000Y-89865000D03*
X165746250Y-90716250D03*
X158350000Y-88020000D03*
X153760000Y-88020000D03*
X136730000Y-111980000D03*
X136380000Y-109880000D03*
X131150000Y-112430000D03*
X127520000Y-115680000D03*
X138675000Y-103000000D03*
X162462500Y-106500000D03*
X157490000Y-113030000D03*
X152943351Y-113552685D03*
X146370000Y-119010000D03*
X94185000Y-74150000D03*
X95635000Y-79150000D03*
X130185000Y-90150000D03*
X100887904Y-57727904D03*
X93950000Y-64380000D03*
X111530000Y-53000000D03*
X131840000Y-52480000D03*
X152171457Y-55378543D03*
X155960000Y-86720000D03*
X150160000Y-80090000D03*
X153160000Y-71340000D03*
X93742649Y-80152649D03*
X102490000Y-73080000D03*
X115780000Y-67570000D03*
X129875000Y-65165000D03*
X151950000Y-75121300D03*
X148138297Y-72100915D03*
X98872096Y-90132096D03*
X90360000Y-97440000D03*
X93090000Y-94540000D03*
X111978702Y-83726000D03*
X109280000Y-86540000D03*
X129230000Y-81050000D03*
X144930000Y-87050000D03*
X150530000Y-89951000D03*
X92281458Y-100351458D03*
X129900000Y-115643700D03*
X143795000Y-120055000D03*
X151100000Y-117170000D03*
X185577699Y-94727699D03*
X175079474Y-122189474D03*
X157440000Y-122741782D03*
X112185000Y-62150000D03*
X130185000Y-56150000D03*
X148185000Y-62770000D03*
X166185000Y-65150000D03*
X94185000Y-91150000D03*
X130185000Y-73150000D03*
X148185000Y-79770000D03*
X166185000Y-82150000D03*
X94086705Y-108149461D03*
X112185000Y-96150000D03*
X148185000Y-96775000D03*
X166185000Y-99150000D03*
X125735000Y-109240000D03*
X147037535Y-109816051D03*
X167274905Y-124081360D03*
X88359000Y-84634500D03*
X89000000Y-67631500D03*
D13*
X186370000Y-64130000D02*
X186370000Y-66670000D01*
D14*
X177822298Y-116907702D02*
X177990000Y-116740000D01*
X177822298Y-118654826D02*
X177822298Y-116907702D01*
X176050507Y-120426617D02*
X177822298Y-118654826D01*
X176050507Y-124110507D02*
X176050507Y-120426617D01*
X176900000Y-124960000D02*
X176050507Y-124110507D01*
X90112225Y-72224000D02*
X88984000Y-73352225D01*
X108133100Y-58746900D02*
X104456000Y-62424000D01*
X88984000Y-76149000D02*
X89185000Y-76350000D01*
X108133100Y-57871091D02*
X108133100Y-58746900D01*
X142226000Y-56101455D02*
X141976455Y-56351000D01*
X94516000Y-72224000D02*
X90112225Y-72224000D01*
X108881091Y-57123100D02*
X108133100Y-57871091D01*
X137523915Y-56351000D02*
X132098151Y-50925236D01*
X141976455Y-56351000D02*
X137523915Y-56351000D01*
X132098151Y-50925236D02*
X123462360Y-50925236D01*
X171130000Y-69210000D02*
X168679691Y-69210000D01*
X104456000Y-62424000D02*
X103112225Y-62424000D01*
X147070000Y-55430000D02*
X146398545Y-56101455D01*
X116620500Y-50259500D02*
X109756900Y-57123100D01*
X109756900Y-57123100D02*
X108881091Y-57123100D01*
X122796624Y-50259500D02*
X116620500Y-50259500D01*
X168679691Y-69210000D02*
X167441000Y-67971309D01*
X167441000Y-67971309D02*
X167441000Y-63625191D01*
X101984000Y-63552225D02*
X101984000Y-64756000D01*
X146398545Y-56101455D02*
X142226000Y-56101455D01*
X167441000Y-63625191D02*
X162541809Y-58726000D01*
X162541809Y-58726000D02*
X155518915Y-58726000D01*
X155518915Y-58726000D02*
X152614106Y-55821191D01*
X123462360Y-50925236D02*
X122796624Y-50259500D01*
X103112225Y-62424000D02*
X101984000Y-63552225D01*
X151337616Y-55430000D02*
X147070000Y-55430000D01*
X152614106Y-55821191D02*
X152430755Y-56004543D01*
X152430755Y-56004543D02*
X151912159Y-56004543D01*
X101984000Y-64756000D02*
X94516000Y-72224000D01*
X151912159Y-56004543D02*
X151337616Y-55430000D01*
X88984000Y-73352225D02*
X88984000Y-76149000D01*
X135767085Y-57200000D02*
X138702876Y-57200000D01*
X141117124Y-57200000D02*
X151387085Y-57200000D01*
X123113124Y-54224000D02*
X132791085Y-54224000D01*
X159463691Y-59259500D02*
X162977191Y-62773000D01*
X121529500Y-54540500D02*
X122796624Y-54540500D01*
X115420000Y-60650000D02*
X121529500Y-54540500D01*
X106984000Y-61352225D02*
X108112225Y-60224000D01*
X110133775Y-60650000D02*
X115420000Y-60650000D01*
X122796624Y-54540500D02*
X123113124Y-54224000D01*
X109707775Y-60224000D02*
X110133775Y-60650000D01*
X132791085Y-54224000D02*
X135767085Y-57200000D01*
X108112225Y-60224000D02*
X109707775Y-60224000D01*
X106984000Y-62947775D02*
X106984000Y-61352225D01*
X107185000Y-63148775D02*
X106984000Y-62947775D01*
X107185000Y-64350000D02*
X107185000Y-63148775D01*
X138702876Y-57200000D02*
X139023376Y-56879500D01*
X139023376Y-56879500D02*
X140796624Y-56879500D01*
X166990000Y-70060309D02*
X168679691Y-71750000D01*
X140796624Y-56879500D02*
X141117124Y-57200000D01*
X151387085Y-57200000D02*
X153446585Y-59259500D01*
X153446585Y-59259500D02*
X159463691Y-59259500D01*
X162977191Y-62773000D02*
X164693298Y-62773000D01*
X164693298Y-62773000D02*
X166990000Y-65069702D01*
X166990000Y-65069702D02*
X166990000Y-70060309D01*
X168679691Y-71750000D02*
X171130000Y-71750000D01*
X163870000Y-58600000D02*
X163870000Y-58592500D01*
X163870000Y-58592500D02*
X167000000Y-55462500D01*
X106760000Y-79050000D02*
X106760000Y-83547500D01*
X106760000Y-83547500D02*
X107212500Y-84000000D01*
D13*
X171130000Y-61590000D02*
X183120000Y-61590000D01*
X183120000Y-61590000D02*
X184370000Y-60340000D01*
X96990000Y-93120000D02*
X96990000Y-88790000D01*
X183120000Y-66670000D02*
X184370000Y-65420000D01*
X97351000Y-81928925D02*
X95821075Y-80399000D01*
X97351000Y-88429000D02*
X97351000Y-81928925D01*
X95821075Y-80399000D02*
X94558373Y-80399000D01*
X94558373Y-80399000D02*
X94053724Y-80903649D01*
X92393649Y-80903649D02*
X92250000Y-80760000D01*
X171130000Y-66670000D02*
X183120000Y-66670000D01*
X92250000Y-97860000D02*
X96990000Y-93120000D01*
X94053724Y-80903649D02*
X92393649Y-80903649D01*
X96990000Y-88790000D02*
X97351000Y-88429000D01*
D14*
X88984000Y-93551000D02*
X88984000Y-110149000D01*
X171130000Y-69210000D02*
X183120000Y-69210000D01*
X88984000Y-110149000D02*
X89185000Y-110350000D01*
X89185000Y-93350000D02*
X88984000Y-93551000D01*
X183120000Y-69210000D02*
X184370000Y-67960000D01*
X89185000Y-76350000D02*
X88984000Y-76551000D01*
X88984000Y-76551000D02*
X88984000Y-93149000D01*
X88984000Y-93149000D02*
X89185000Y-93350000D01*
X109433775Y-81350000D02*
X110836000Y-79947775D01*
X110836000Y-68001000D02*
X107185000Y-64350000D01*
X171130000Y-71750000D02*
X183120000Y-71750000D01*
X107385000Y-81350000D02*
X109433775Y-81350000D01*
X110836000Y-79947775D02*
X110836000Y-68001000D01*
X183120000Y-71750000D02*
X184370000Y-70500000D01*
X125185000Y-58350000D02*
X124984000Y-58551000D01*
X124984000Y-58551000D02*
X124984000Y-75149000D01*
X147144298Y-60844000D02*
X141113124Y-60844000D01*
X154733775Y-64250000D02*
X153160675Y-62676900D01*
X124600000Y-75935000D02*
X124600000Y-91765000D01*
X158087124Y-64250000D02*
X154733775Y-64250000D01*
X159113124Y-63224000D02*
X158087124Y-64250000D01*
X166031000Y-71641309D02*
X166031000Y-66101000D01*
X153160675Y-62676900D02*
X148977198Y-62676900D01*
X136024275Y-61160500D02*
X135160675Y-60296900D01*
X124600000Y-91765000D02*
X125185000Y-92350000D01*
X166031000Y-66101000D02*
X164836000Y-64906000D01*
X164836000Y-64352225D02*
X163707775Y-63224000D01*
X164836000Y-64906000D02*
X164836000Y-64352225D01*
X124984000Y-75149000D02*
X125185000Y-75350000D01*
X168679691Y-74290000D02*
X166031000Y-71641309D01*
X183120000Y-74290000D02*
X184370000Y-73040000D01*
X130735000Y-97975000D02*
X130735000Y-107040000D01*
X171130000Y-74290000D02*
X168679691Y-74290000D01*
X163707775Y-63224000D02*
X159113124Y-63224000D01*
X125185000Y-92425000D02*
X130735000Y-97975000D01*
X125185000Y-92350000D02*
X125185000Y-92425000D01*
X141113124Y-60844000D02*
X140796624Y-61160500D01*
X127131900Y-60296900D02*
X125185000Y-58350000D01*
X171130000Y-74290000D02*
X183120000Y-74290000D01*
X140796624Y-61160500D02*
X136024275Y-61160500D01*
X148977198Y-62676900D02*
X147144298Y-60844000D01*
X125185000Y-75350000D02*
X124600000Y-75935000D01*
X135160675Y-60296900D02*
X127131900Y-60296900D01*
X167927700Y-76078009D02*
X168679691Y-76830000D01*
X142984000Y-65171000D02*
X142984000Y-81769000D01*
X171130000Y-76830000D02*
X183120000Y-76830000D01*
X160144298Y-65424000D02*
X165580000Y-70859702D01*
X168679691Y-76830000D02*
X171130000Y-76830000D01*
X142984000Y-81769000D02*
X143185000Y-81970000D01*
X145291000Y-67076000D02*
X155460225Y-67076000D01*
X143185000Y-64970000D02*
X142984000Y-65171000D01*
X143185000Y-99733543D02*
X152436566Y-108985109D01*
X142984000Y-98774000D02*
X143185000Y-98975000D01*
X183120000Y-76830000D02*
X184370000Y-75580000D01*
X155460225Y-67076000D02*
X157112225Y-65424000D01*
X165580000Y-70859702D02*
X165580000Y-73750000D01*
X167908009Y-76078009D02*
X167927700Y-76078009D01*
X157112225Y-65424000D02*
X160144298Y-65424000D01*
X143185000Y-81970000D02*
X142984000Y-82171000D01*
X143185000Y-98975000D02*
X143185000Y-99733543D01*
X165580000Y-73750000D02*
X167908009Y-76078009D01*
X142984000Y-82171000D02*
X142984000Y-98774000D01*
X143185000Y-64970000D02*
X145291000Y-67076000D01*
X171130000Y-79370000D02*
X183120000Y-79370000D01*
X161185000Y-67350000D02*
X160984000Y-67551000D01*
X160340000Y-85195000D02*
X160340000Y-100505000D01*
X161185000Y-84350000D02*
X160340000Y-85195000D01*
X183120000Y-79370000D02*
X184370000Y-78120000D01*
X161185000Y-101350000D02*
X171433149Y-111598149D01*
X167888009Y-78618009D02*
X167927700Y-78618009D01*
X169394691Y-118651233D02*
X167869649Y-118651233D01*
X164990000Y-71155000D02*
X164990000Y-75720000D01*
X171433149Y-116612775D02*
X169394691Y-118651233D01*
X161185000Y-67350000D02*
X164990000Y-71155000D01*
X160984000Y-84149000D02*
X161185000Y-84350000D01*
X168679691Y-79370000D02*
X171130000Y-79370000D01*
X160340000Y-100505000D02*
X161185000Y-101350000D01*
X164990000Y-75720000D02*
X167888009Y-78618009D01*
X167927700Y-78618009D02*
X168679691Y-79370000D01*
X160984000Y-67551000D02*
X160984000Y-84149000D01*
X171433149Y-111598149D02*
X171433149Y-116612775D01*
X171130000Y-64130000D02*
X183120000Y-64130000D01*
X183120000Y-64130000D02*
X184370000Y-62880000D01*
X171130000Y-59050000D02*
X172380000Y-57800000D01*
X172380000Y-57800000D02*
X184370000Y-57800000D01*
X187580000Y-85660000D02*
X186370000Y-84450000D01*
X186417009Y-88643300D02*
X187580000Y-87480309D01*
X187580000Y-87480309D02*
X187580000Y-85660000D01*
X170156215Y-88643300D02*
X186417009Y-88643300D01*
X169130000Y-83200000D02*
X167927700Y-84402300D01*
X167927700Y-84402300D02*
X167927700Y-86414785D01*
X167927700Y-86414785D02*
X170156215Y-88643300D01*
X186370000Y-57800000D02*
X186370000Y-59050000D01*
X185167700Y-56597700D02*
X186370000Y-57800000D01*
X170332300Y-56597700D02*
X185167700Y-56597700D01*
X169130000Y-57800000D02*
X170332300Y-56597700D01*
X186370000Y-86990000D02*
X185167700Y-88192300D01*
X169130000Y-86979275D02*
X169130000Y-85740000D01*
X185167700Y-88192300D02*
X170343025Y-88192300D01*
X170343025Y-88192300D02*
X169130000Y-86979275D01*
X171130000Y-81910000D02*
X183120000Y-81910000D01*
X183120000Y-81910000D02*
X184370000Y-80660000D01*
X184370000Y-83200000D02*
X172380000Y-83200000D01*
X172380000Y-83200000D02*
X171130000Y-84450000D01*
X171130000Y-86990000D02*
X183120000Y-86990000D01*
X183120000Y-86990000D02*
X184370000Y-85740000D01*
X107385000Y-81350000D02*
X108133100Y-82098100D01*
X108133100Y-82098100D02*
X108133100Y-94203125D01*
X108133100Y-94203125D02*
X106984000Y-95352225D01*
X106984000Y-95352225D02*
X106984000Y-98149000D01*
X106984000Y-98149000D02*
X107185000Y-98350000D01*
M02*
